<?xml version="1.0" standalone="no"?>
<!DOCTYPE svg PUBLIC "-//W3C//DTD SVG 20010904//EN"
 "http://www.w3.org/TR/2001/REC-SVG-20010904/DTD/svg10.dtd">
<svg version="1.0" xmlns="http://www.w3.org/2000/svg"
 width="70.000000pt" height="70.000000pt" viewBox="0 0 70.000000 70.000000"
 preserveAspectRatio="xMidYMid meet">
<metadata>
Created by potrace 1.14, written by Peter Selinger 2001-2017
</metadata>
<g transform="translate(0.000000,70.000000) scale(0.100000,-0.100000)"
fill="#000000" stroke="none">
<path d="M198 598 l-148 -91 0 -171 0 -171 81 -49 c64 -38 83 -46 90 -35 14
23 11 27 -56 66 l-65 38 0 151 0 150 126 77 127 76 41 -27 c23 -15 78 -50 124
-77 l82 -49 0 -150 0 -151 -65 -38 c-67 -39 -70 -43 -56 -65 7 -11 26 -4 88
34 l80 47 0 173 0 173 -146 88 c-80 48 -148 89 -151 90 -3 0 -71 -40 -152 -89z"/>
<path d="M255 549 c-57 -30 -72 -46 -101 -105 -49 -101 -26 -217 59 -289 22
-19 56 -38 74 -41 27 -5 33 -10 27 -23 -15 -35 -9 -54 19 -63 39 -14 60 6 53
47 -6 30 -4 32 32 43 75 23 142 113 147 201 10 177 -165 307 -310 230z m189
-44 c63 -41 100 -149 77 -224 -25 -86 -118 -151 -197 -138 -105 17 -180 139
-151 247 11 41 48 94 83 117 51 33 135 33 188 -2z"/>
<path d="M270 488 c-55 -38 -74 -71 -78 -141 -3 -54 0 -67 24 -103 47 -73 119
-97 191 -64 126 56 135 240 14 308 -51 29 -108 29 -151 0z m95 -208 c10 -16
-16 -43 -28 -31 -11 11 -2 41 12 41 5 0 13 -5 16 -10z"/>
</g>
</svg>
