<svg id="グループ_11521" data-name="グループ 11521" xmlns="http://www.w3.org/2000/svg" xmlns:xlink="http://www.w3.org/1999/xlink" width="167.462" height="103.524" viewBox="0 0 167.462 103.524">
  <defs>
    <clipPath id="clip-path">
      <rect id="長方形_25422" data-name="長方形 25422" width="167.462" height="103.524" fill="none"/>
    </clipPath>
  </defs>
  <path id="パス_14137" data-name="パス 14137" d="M30.942,12.234,57.111,100H4.7ZM30.947,0,0,103.5H61.806Z" fill="#f2831b"/>
  <path id="パス_14138" data-name="パス 14138" d="M127.512,67.344v1.735H122.6V82.672h-1.993V69.079H115.7V67.344Z" fill="#1c0e0a"/>
  <path id="パス_14139" data-name="パス 14139" d="M64.54,67.26h2.324l7.264,12.531V67.26h1.883V82.588H73.8L66.424,70.071V82.588H64.54Z" fill="#1c0e0a"/>
  <rect id="長方形_25421" data-name="長方形 25421" width="1.993" height="15.328" transform="translate(79.934 67.26)" fill="#1c0e0a"/>
  <g id="グループ_11520" data-name="グループ 11520">
    <g id="グループ_11519" data-name="グループ 11519" clip-path="url(#clip-path)">
      <path id="パス_14140" data-name="パス 14140" d="M95.317,68.053a5.18,5.18,0,0,1,2.619,4H95.983a3.559,3.559,0,0,0-1.447-2.326A4.908,4.908,0,0,0,91.769,69a4.3,4.3,0,0,0-3.335,1.517,6.6,6.6,0,0,0-1.355,4.521A7.328,7.328,0,0,0,88.2,79.261a4.1,4.1,0,0,0,3.644,1.632,4.6,4.6,0,0,0,3.2-1.146,4.851,4.851,0,0,0,1.3-3.7H91.778V74.408h6.395V82.2H96.9l-.475-1.874a7.389,7.389,0,0,1-1.746,1.527,6.447,6.447,0,0,1-3.248.734,6.264,6.264,0,0,1-4.379-1.676,8.028,8.028,0,0,1-2-5.77,8.35,8.35,0,0,1,1.955-5.82,6.172,6.172,0,0,1,4.807-2.062,7.286,7.286,0,0,1,3.5.793" fill="#1c0e0a"/>
      <path id="パス_14141" data-name="パス 14141" d="M101.849,67.26h1.993v6.4h7.486v-6.4h1.993V82.588h-1.993v-7.2h-7.486v7.2h-1.993Z" fill="#1c0e0a"/>
      <path id="パス_14142" data-name="パス 14142" d="M75.5,89.633a5.176,5.176,0,0,1,1.676,3.312H75.248a3.663,3.663,0,0,0-3.973-3.054A4.279,4.279,0,0,0,67.863,91.4a6.988,6.988,0,0,0-1.3,4.639,6.826,6.826,0,0,0,1.174,4.153,4.068,4.068,0,0,0,3.5,1.592,3.68,3.68,0,0,0,3.263-1.675,6.446,6.446,0,0,0,.886-2.32H77.31a6.6,6.6,0,0,1-1.685,3.857A5.966,5.966,0,0,1,71,103.524a6.06,6.06,0,0,1-4.214-1.538q-2.246-2.034-2.245-6.28a8.091,8.091,0,0,1,1.685-5.288,6.128,6.128,0,0,1,5.028-2.243A5.855,5.855,0,0,1,75.5,89.633" fill="#1c0e0a"/>
      <path id="パス_14143" data-name="パス 14143" d="M92.653,90.648A8,8,0,0,1,94.1,95.583a8.623,8.623,0,0,1-1.656,5.41,7.371,7.371,0,0,1-10.827.316,8.347,8.347,0,0,1-1.716-5.4,8.576,8.576,0,0,1,1.468-5.044,6.362,6.362,0,0,1,5.572-2.69,6.676,6.676,0,0,1,5.711,2.472m-1.74,9.26a7.934,7.934,0,0,0,1.165-4.29,6.113,6.113,0,0,0-1.344-4.128,4.587,4.587,0,0,0-3.673-1.564,4.791,4.791,0,0,0-3.689,1.55,6.523,6.523,0,0,0-1.427,4.567,6.667,6.667,0,0,0,1.224,4.073,4.61,4.61,0,0,0,3.971,1.658,4.11,4.11,0,0,0,3.773-1.866" fill="#1c0e0a"/>
      <path id="パス_14144" data-name="パス 14144" d="M96.317,88.176h3l4.447,12.977,4.417-12.977h2.98v15.348h-2V94.466c0-.314.007-.832.021-1.557s.021-1.5.021-2.33l-4.416,12.945h-2.076L98.254,90.579v.47c0,.376.011.95.032,1.719s.032,1.335.032,1.7v9.058h-2Z" fill="#1c0e0a"/>
      <path id="パス_14145" data-name="パス 14145" d="M114.735,88.176h6.518a4.418,4.418,0,0,1,3.12,1.1,3.975,3.975,0,0,1,1.189,3.079,4.479,4.479,0,0,1-1.061,2.97,4,4,0,0,1-3.245,1.264h-4.548v6.939h-1.973Zm7.653,2a4.239,4.239,0,0,0-1.782-.308h-3.9v5.048h3.9a3.7,3.7,0,0,0,2.141-.565,2.248,2.248,0,0,0,.822-1.993,2.2,2.2,0,0,0-1.181-2.182" fill="#1c0e0a"/>
      <path id="パス_14146" data-name="パス 14146" d="M131.014,88.176h2.228l5.286,15.348h-2.161l-1.521-4.6h-5.714l-1.58,4.6H125.53Zm3.272,9.058-2.243-6.781-2.33,6.781Z" fill="#1c0e0a"/>
      <path id="パス_14147" data-name="パス 14147" d="M140.761,88.176h2.324l7.263,12.548V88.176h1.884v15.348h-2.216l-7.371-12.533v12.533h-1.884Z" fill="#1c0e0a"/>
      <path id="パス_14148" data-name="パス 14148" d="M154.467,88.176h2.3l4.187,7,4.187-7h2.321l-5.517,8.7v6.647h-1.973V96.877Z" fill="#1c0e0a"/>
      <path id="パス_14149" data-name="パス 14149" d="M66.395,56.576a4.1,4.1,0,0,0,.563,2.013,3.679,3.679,0,0,0,3.334,1.447,5.714,5.714,0,0,0,1.948-.317,2.232,2.232,0,0,0,1.7-2.2,1.924,1.924,0,0,0-.72-1.695,7.115,7.115,0,0,0-2.286-.863l-1.912-.446a8.461,8.461,0,0,1-2.65-.962,3.075,3.075,0,0,1-1.345-2.726A4.258,4.258,0,0,1,66.349,47.6a5.214,5.214,0,0,1,3.743-1.259,6.376,6.376,0,0,1,3.787,1.106,4.032,4.032,0,0,1,1.558,3.534H73.583a3.739,3.739,0,0,0-.608-1.794,3.461,3.461,0,0,0-2.937-1.141,3.3,3.3,0,0,0-2.4.734,2.342,2.342,0,0,0-.732,1.706,1.675,1.675,0,0,0,.865,1.566,12.426,12.426,0,0,0,2.565.793l1.979.466a5.966,5.966,0,0,1,2.209.922A3.5,3.5,0,0,1,75.864,57.2a3.727,3.727,0,0,1-1.717,3.46A7.536,7.536,0,0,1,70.159,61.7a5.868,5.868,0,0,1-4.148-1.388,4.74,4.74,0,0,1-1.47-3.738Z" fill="#1c0e0a"/>
      <path id="パス_14150" data-name="パス 14150" d="M89.413,46.344v1.735H84.505V61.7H82.512V48.079H77.6V46.344Z" fill="#1c0e0a"/>
      <path id="パス_14151" data-name="パス 14151" d="M104.074,46.345h6.62a6.476,6.476,0,0,1,2.7.487,3.462,3.462,0,0,1,2.015,3.453,3.6,3.6,0,0,1-2.052,3.492,2.98,2.98,0,0,1,1.284.916,3.3,3.3,0,0,1,.481,1.84l.07,1.96a16.815,16.815,0,0,0,.138,1.94,1.225,1.225,0,0,0,.634.9v.328h-2.418a1.771,1.771,0,0,1-.159-.487,9.244,9.244,0,0,1-.1-1.154l-.119-3.134a2.062,2.062,0,0,0-1.031-1.921,4.144,4.144,0,0,0-1.724-.268h-4.364V61.7h-1.973Zm6.408,6.7a3.635,3.635,0,0,0,2.136-.557,2.3,2.3,0,0,0,.786-2.01,2.172,2.172,0,0,0-1.1-2.129,3.48,3.48,0,0,0-1.571-.3h-4.686v4.995Z" fill="#1c0e0a"/>
      <path id="パス_14152" data-name="パス 14152" d="M119.1,46.345h6.619a6.47,6.47,0,0,1,2.7.487,3.46,3.46,0,0,1,2.015,3.453,3.591,3.591,0,0,1-2.052,3.492,2.977,2.977,0,0,1,1.285.916,3.3,3.3,0,0,1,.48,1.84l.071,1.96a16.589,16.589,0,0,0,.138,1.94,1.223,1.223,0,0,0,.634.9v.328h-2.418a1.769,1.769,0,0,1-.16-.487,9.448,9.448,0,0,1-.1-1.154l-.118-3.134a2.066,2.066,0,0,0-1.031-1.921,4.147,4.147,0,0,0-1.724-.268H121.07V61.7H119.1Zm6.408,6.7a3.635,3.635,0,0,0,2.136-.557,2.3,2.3,0,0,0,.785-2.01,2.172,2.172,0,0,0-1.1-2.129,3.475,3.475,0,0,0-1.57-.3H121.07v4.995Z" fill="#1c0e0a"/>
      <path id="パス_14153" data-name="パス 14153" d="M132.114,46.345h2.3l4.187,7,4.187-7h2.321l-5.517,8.7V61.7H137.62v-6.66Z" fill="#1c0e0a"/>
      <path id="パス_14154" data-name="パス 14154" d="M94.2,46.345h2.228L101.718,61.7H99.557l-1.521-4.6H92.322l-1.58,4.6H88.72Zm3.272,9.064-2.243-6.785L92.9,55.409Z" fill="#1c0e0a"/>
    </g>
  </g>
</svg>
